<svg width="133" height="29" viewBox="0 0 133 29" fill="none" xmlns="http://www.w3.org/2000/svg">
<path d="M43.528 21C43.208 21 42.936 20.896 42.712 20.688C42.504 20.464 42.4 20.192 42.4 19.872V3.384C42.4 3.048 42.504 2.776 42.712 2.568C42.936 2.36 43.208 2.256 43.528 2.256H47.92C49.104 2.256 50.152 2.504 51.064 3C51.992 3.496 52.712 4.184 53.224 5.064C53.752 5.944 54.016 6.96 54.016 8.112C54.016 9.2 53.752 10.168 53.224 11.016C52.712 11.864 51.992 12.528 51.064 13.008C50.152 13.488 49.104 13.728 47.92 13.728H44.656V19.872C44.656 20.192 44.552 20.464 44.344 20.688C44.136 20.896 43.864 21 43.528 21ZM53.512 21C53.304 21 53.12 20.96 52.96 20.88C52.8 20.784 52.656 20.64 52.528 20.448L48.112 13.344L50.32 12.72L54.4 19.272C54.672 19.704 54.712 20.104 54.52 20.472C54.328 20.824 53.992 21 53.512 21ZM44.656 11.616H47.92C48.688 11.616 49.36 11.472 49.936 11.184C50.528 10.88 50.992 10.464 51.328 9.936C51.664 9.392 51.832 8.784 51.832 8.112C51.832 7.376 51.664 6.728 51.328 6.168C50.992 5.592 50.528 5.152 49.936 4.848C49.36 4.528 48.688 4.368 47.92 4.368H44.656V11.616ZM58.3109 16.008C57.9909 16.008 57.7269 15.904 57.5189 15.696C57.3109 15.472 57.2069 15.2 57.2069 14.88V3.36C57.2069 3.024 57.3109 2.76 57.5189 2.568C57.7269 2.36 57.9909 2.256 58.3109 2.256C58.6469 2.256 58.9109 2.36 59.1029 2.568C59.3109 2.76 59.4149 3.024 59.4149 3.36V14.88C59.4149 15.2 59.3109 15.472 59.1029 15.696C58.9109 15.904 58.6469 16.008 58.3109 16.008ZM68.3669 21.024C68.0469 21.024 67.7749 20.92 67.5509 20.712C67.3429 20.488 67.2389 20.224 67.2389 19.92V13.872C67.2389 12.928 67.0629 12.16 66.7109 11.568C66.3589 10.96 65.8869 10.512 65.2949 10.224C64.7029 9.92 64.0229 9.768 63.2549 9.768C62.5349 9.768 61.8869 9.912 61.3109 10.2C60.7349 10.488 60.2709 10.872 59.9189 11.352C59.5829 11.832 59.4149 12.384 59.4149 13.008H57.9749C57.9909 12 58.2469 11.104 58.7429 10.32C59.2389 9.52 59.9109 8.896 60.7589 8.448C61.6069 7.984 62.5589 7.752 63.6149 7.752C64.7349 7.752 65.7349 7.992 66.6149 8.472C67.4949 8.936 68.1909 9.624 68.7029 10.536C69.2149 11.448 69.4709 12.56 69.4709 13.872V19.92C69.4709 20.224 69.3589 20.488 69.1349 20.712C68.9269 20.92 68.6709 21.024 68.3669 21.024ZM58.3109 21.024C57.9909 21.024 57.7269 20.92 57.5189 20.712C57.3109 20.504 57.2069 20.24 57.2069 19.92V8.976C57.2069 8.64 57.3109 8.376 57.5189 8.184C57.7269 7.976 57.9909 7.872 58.3109 7.872C58.6469 7.872 58.9109 7.976 59.1029 8.184C59.3109 8.376 59.4149 8.64 59.4149 8.976V19.92C59.4149 20.24 59.3109 20.504 59.1029 20.712C58.9109 20.92 58.6469 21.024 58.3109 21.024ZM75.8468 26.736C75.7028 26.736 75.5348 26.696 75.3428 26.616C74.7028 26.328 74.5268 25.872 74.8148 25.248L82.3028 8.496C82.5908 7.888 83.0468 7.712 83.6708 7.968C84.3268 8.24 84.5108 8.696 84.2228 9.336L76.7108 26.064C76.5188 26.512 76.2308 26.736 75.8468 26.736ZM78.6308 20.52C78.3428 20.648 78.0788 20.664 77.8388 20.568C77.5988 20.472 77.4068 20.288 77.2628 20.016L71.8148 9.312C71.6708 9.04 71.6468 8.776 71.7428 8.52C71.8548 8.264 72.0548 8.08 72.3428 7.968C72.6148 7.84 72.8708 7.824 73.1108 7.92C73.3668 8 73.5588 8.184 73.6868 8.472L78.9428 19.152C79.1028 19.44 79.1588 19.712 79.1108 19.968C79.0628 20.208 78.9028 20.392 78.6308 20.52ZM91.4706 21C90.6546 21 89.9186 20.8 89.2626 20.4C88.6066 19.984 88.0946 19.432 87.7266 18.744C87.3586 18.04 87.1746 17.24 87.1746 16.344V4.8C87.1746 4.48 87.2706 4.216 87.4626 4.008C87.6706 3.8 87.9346 3.696 88.2546 3.696C88.5746 3.696 88.8386 3.8 89.0466 4.008C89.2546 4.216 89.3586 4.48 89.3586 4.8V16.344C89.3586 17.064 89.5586 17.656 89.9586 18.12C90.3586 18.584 90.8626 18.816 91.4706 18.816H92.2146C92.4866 18.816 92.7106 18.92 92.8866 19.128C93.0786 19.336 93.1746 19.6 93.1746 19.92C93.1746 20.24 93.0546 20.504 92.8146 20.712C92.5906 20.904 92.2946 21 91.9266 21H91.4706ZM85.8786 10.248C85.5906 10.248 85.3506 10.16 85.1586 9.984C84.9666 9.808 84.8706 9.584 84.8706 9.312C84.8706 9.024 84.9666 8.792 85.1586 8.616C85.3506 8.44 85.5906 8.352 85.8786 8.352H91.6626C91.9506 8.352 92.1906 8.44 92.3826 8.616C92.5746 8.792 92.6706 9.024 92.6706 9.312C92.6706 9.584 92.5746 9.808 92.3826 9.984C92.1906 10.16 91.9506 10.248 91.6626 10.248H85.8786ZM97.2874 16.008C96.9674 16.008 96.7034 15.904 96.4954 15.696C96.2874 15.472 96.1834 15.2 96.1834 14.88V3.36C96.1834 3.024 96.2874 2.76 96.4954 2.568C96.7034 2.36 96.9674 2.256 97.2874 2.256C97.6234 2.256 97.8874 2.36 98.0794 2.568C98.2874 2.76 98.3914 3.024 98.3914 3.36V14.88C98.3914 15.2 98.2874 15.472 98.0794 15.696C97.8874 15.904 97.6234 16.008 97.2874 16.008ZM107.343 21.024C107.023 21.024 106.751 20.92 106.527 20.712C106.319 20.488 106.215 20.224 106.215 19.92V13.872C106.215 12.928 106.039 12.16 105.687 11.568C105.335 10.96 104.863 10.512 104.271 10.224C103.679 9.92 102.999 9.768 102.231 9.768C101.511 9.768 100.863 9.912 100.287 10.2C99.7114 10.488 99.2474 10.872 98.8954 11.352C98.5594 11.832 98.3914 12.384 98.3914 13.008H96.9514C96.9674 12 97.2234 11.104 97.7194 10.32C98.2154 9.52 98.8874 8.896 99.7354 8.448C100.583 7.984 101.535 7.752 102.591 7.752C103.711 7.752 104.711 7.992 105.591 8.472C106.471 8.936 107.167 9.624 107.679 10.536C108.191 11.448 108.447 12.56 108.447 13.872V19.92C108.447 20.224 108.335 20.488 108.111 20.712C107.903 20.92 107.647 21.024 107.343 21.024ZM97.2874 21.024C96.9674 21.024 96.7034 20.92 96.4954 20.712C96.2874 20.504 96.1834 20.24 96.1834 19.92V8.976C96.1834 8.64 96.2874 8.376 96.4954 8.184C96.7034 7.976 96.9674 7.872 97.2874 7.872C97.6234 7.872 97.8874 7.976 98.0794 8.184C98.2874 8.376 98.3914 8.64 98.3914 8.976V19.92C98.3914 20.24 98.2874 20.504 98.0794 20.712C97.8874 20.92 97.6234 21.024 97.2874 21.024ZM129.943 21.024C129.623 21.024 129.359 20.92 129.151 20.712C128.943 20.504 128.839 20.24 128.839 19.92V13.032C128.839 11.976 128.567 11.168 128.023 10.608C127.495 10.048 126.807 9.768 125.959 9.768C125.063 9.768 124.327 10.08 123.751 10.704C123.191 11.312 122.911 12.104 122.911 13.08H121.039C121.055 12.024 121.287 11.096 121.735 10.296C122.183 9.496 122.807 8.872 123.607 8.424C124.407 7.976 125.311 7.752 126.319 7.752C127.247 7.752 128.063 7.96 128.767 8.376C129.487 8.792 130.047 9.4 130.447 10.2C130.847 10.984 131.047 11.928 131.047 13.032V19.92C131.047 20.24 130.943 20.504 130.735 20.712C130.543 20.92 130.279 21.024 129.943 21.024ZM113.623 21.024C113.303 21.024 113.039 20.92 112.831 20.712C112.623 20.504 112.519 20.24 112.519 19.92V9C112.519 8.664 112.623 8.4 112.831 8.208C113.039 8 113.303 7.896 113.623 7.896C113.959 7.896 114.223 8 114.415 8.208C114.623 8.4 114.727 8.664 114.727 9V19.92C114.727 20.24 114.623 20.504 114.415 20.712C114.223 20.92 113.959 21.024 113.623 21.024ZM121.807 21.024C121.487 21.024 121.223 20.92 121.015 20.712C120.807 20.504 120.703 20.24 120.703 19.92V13.032C120.703 11.976 120.431 11.168 119.887 10.608C119.359 10.048 118.671 9.768 117.823 9.768C116.927 9.768 116.183 10.072 115.591 10.68C115.015 11.288 114.727 12.064 114.727 13.008H113.287C113.303 11.984 113.519 11.08 113.935 10.296C114.367 9.496 114.951 8.872 115.687 8.424C116.423 7.976 117.255 7.752 118.183 7.752C119.111 7.752 119.927 7.96 120.631 8.376C121.351 8.792 121.911 9.4 122.311 10.2C122.711 10.984 122.911 11.928 122.911 13.032V19.92C122.911 20.24 122.807 20.504 122.599 20.712C122.407 20.92 122.143 21.024 121.807 21.024Z" fill="#121212"/>
<path fill-rule="evenodd" clip-rule="evenodd" d="M14.1497 15.7262C13.7657 23.0669 7.59189 28.9146 0 29V1C7.59189 1.08547 13.7657 6.9331 14.1497 14.2738C14.5287 7.02987 20.5459 1.2399 28 1.0064V28.9937C20.5459 28.7602 14.5287 22.9702 14.1497 15.7262Z" fill="#FF6428"/>
</svg>
